<svg width="200" height="168" viewBox="0 0 200 168" fill="none" xmlns="http://www.w3.org/2000/svg">
<path d="M1.00125 155.111C0.383101 155.663 0.329092 156.611 0.880618 157.229L9.86826 167.303C10.4198 167.921 11.368 167.975 11.9861 167.423C12.6043 166.872 12.6583 165.923 12.1068 165.305L4.11777 156.351L13.0718 148.362C13.69 147.811 13.744 146.862 13.1925 146.244C12.641 145.626 11.6927 145.572 11.0746 146.124L1.00125 155.111ZM196.169 0.520427C190.996 91.3447 104.257 160.553 2.08518 154.733L1.91458 157.728C105.412 163.623 193.879 93.4799 199.164 0.691028L196.169 0.520427Z" fill="#F9EFE9"/>
</svg>
