<svg width="20" height="20" viewBox="0 0 20 20" fill="none" xmlns="http://www.w3.org/2000/svg">
<g clip-path="url(#clip0_57_103)">
<path d="M9.90992 19.4C15.1511 19.4 19.3999 15.1512 19.3999 9.90998C19.3999 4.6688 15.1511 0.419983 9.90992 0.419983C4.66874 0.419983 0.419922 4.6688 0.419922 9.90998C0.419922 15.1512 4.66874 19.4 9.90992 19.4Z" stroke="#D57B3A" stroke-width="0.8496" stroke-miterlimit="10"/>
<path d="M5.87012 7.92996C5.87012 7.92996 6.09012 6.82996 7.19012 6.82996C8.29012 6.82996 8.51012 7.92996 8.51012 7.92996" stroke="#D57B3A" stroke-width="0.4413" stroke-miterlimit="10"/>
<path d="M11.6001 7.92996C11.6001 7.92996 11.8201 6.82996 12.9201 6.82996C14.0201 6.82996 14.2401 7.92996 14.2401 7.92996" stroke="#D57B3A" stroke-width="0.4413" stroke-miterlimit="10"/>
<path d="M14.4301 12.45C14.4301 12.45 13.2001 15.74 9.80014 15.74C6.40014 15.74 5.39014 12.45 5.39014 12.45" stroke="#D57B3A" stroke-width="0.6619" stroke-miterlimit="10"/>
</g>
<defs>
<clipPath id="clip0_57_103">
<rect width="19.82" height="19.82" fill="white"/>
</clipPath>
</defs>
</svg>
