<svg width="237" height="193" viewBox="0 0 237 193" fill="none" xmlns="http://www.w3.org/2000/svg">
<path d="M0.46967 92.4697C0.176777 92.7626 0.176777 93.2374 0.46967 93.5303L5.24264 98.3033C5.53553 98.5962 6.01041 98.5962 6.3033 98.3033C6.59619 98.0104 6.59619 97.5355 6.3033 97.2426L2.06066 93L6.3033 88.7574C6.59619 88.4645 6.59619 87.9896 6.3033 87.6967C6.01041 87.4038 5.53553 87.4038 5.24264 87.6967L0.46967 92.4697ZM1 93.75L127 93.75L127 92.25L1 92.25L1 93.75Z" fill="#D57B3A"/>
<line x1="164.462" y1="75.477" x2="236.462" y2="1.47699" stroke="#D57B3A" stroke-width="1.5"/>
<line x1="160.573" y1="112.516" x2="228.225" y2="192.488" stroke="#D57B3A" stroke-width="1.5"/>
</svg>
