<svg width="423" height="934" viewBox="0 0 423 934" fill="none" xmlns="http://www.w3.org/2000/svg">
<path opacity="0.84" d="M111.798 924.902L-72.9876 933.656C-109.352 935.378 -141.199 909.49 -146.939 873.54C-153.88 830.074 -120.255 790.728 -76.2392 790.808L152.625 791.225C171.248 791.259 189.608 786.835 206.172 778.322C281.779 739.464 291.787 635.39 224.969 582.837L223.078 581.35C196.08 560.115 179.651 528.188 178.068 493.876L176.484 459.562C173.653 398.2 117.146 353.562 56.7956 365.011C1.06721 375.583 -52.4338 338.191 -61.6567 282.223L-85.4478 137.851C-89.1495 115.388 -106.697 97.7485 -129.14 93.9294C-158.078 89.0053 -174.206 57.7007 -161.418 31.2792L-159.625 27.5744C-148.841 5.29328 -122.667 -4.85998 -99.6782 4.3204L-60.7466 19.8677C-28.9984 32.5463 -6.87598 61.7561 -3.27461 95.752L1.57628 141.543C7.08243 193.52 59.0115 227.267 108.744 211.189C156.22 195.84 208.173 212.915 237.286 253.435L261.792 287.542C277.744 309.744 285.884 336.608 284.938 363.93L283.048 418.538C281.495 463.41 310.058 503.81 352.879 517.31C395.896 530.871 424.498 571.564 422.69 616.631L421.379 649.313C420.375 674.325 412.811 698.634 399.445 719.799L371.077 764.719C344.265 807.175 308.411 843.189 266.076 870.19L248.242 881.564C207.32 907.664 160.281 922.605 111.798 924.902Z" fill="#F9EFE9"/>
</svg>
