<svg width="574" height="1169" viewBox="0 0 574 1169" fill="none" xmlns="http://www.w3.org/2000/svg">
<path opacity="0.84" d="M323.399 61.4134L553.919 3.67402C599.284 -7.6886 645.939 16.8667 662.257 60.6933C681.986 113.683 649.584 171.74 594.126 182.766L305.772 240.097C282.308 244.762 260.302 254.976 241.593 269.885C156.19 337.939 169.896 471.548 267.336 520.846L270.094 522.241C309.466 542.16 338.228 578.218 348.897 621.033L359.566 663.851C378.645 740.419 461.098 782.355 534.214 752.679C601.73 725.275 678.566 758.845 704.33 827.003L770.792 1002.82C781.133 1030.18 807.693 1047.96 836.925 1047.1C874.616 1045.98 902.843 1081.33 893.416 1117.84L892.095 1122.96C884.145 1153.75 853.746 1173.15 822.472 1167.4L769.508 1157.66C726.316 1149.72 691.069 1118.53 677.939 1076.62L660.254 1020.17C640.179 956.1 566.244 926.724 507.671 959.547C451.758 990.88 382.007 982.508 335.096 938.834L295.609 902.072C269.906 878.142 252.862 846.365 247.146 811.714L235.722 742.46C226.334 685.551 180.147 641.889 122.802 635.712C65.1954 629.506 18.8844 585.485 9.76846 528.267L3.15774 486.773C-1.90164 455.017 1.48042 422.489 12.9644 392.453L37.3375 328.706C60.3737 268.455 96.4257 214.033 142.92 169.323L162.506 150.489C207.449 107.271 262.916 76.5627 323.399 61.4134Z" fill="#F9EFE9"/>
</svg>
