<svg width="502" height="1225" viewBox="0 0 502 1225" fill="none" xmlns="http://www.w3.org/2000/svg">
<path opacity="0.84" d="M493.94 4.15845L743.01 37.4838C792.025 44.042 828.276 86.3979 827.188 135.838C825.872 195.614 771.351 240.002 712.55 229.17L406.81 172.849C381.932 168.266 356.318 169.705 332.11 177.045C221.604 210.55 182.873 347.191 259.36 433.7L261.524 436.148C292.429 471.103 306.604 517.771 300.36 564.01L294.115 610.251C282.949 692.942 347.584 766.362 431.023 765.767C508.071 765.217 570.456 828.222 569.145 905.261L565.761 1103.99C565.234 1134.91 584.386 1162.76 613.447 1173.33C650.918 1186.96 664.844 1232.72 641.317 1264.92L638.018 1269.43C618.177 1296.58 580.726 1303.77 552.242 1285.9L504.004 1255.64C464.667 1230.96 442.221 1186.53 445.692 1140.23L450.366 1077.85C455.673 1007.05 394.5 949.3 324.122 958.669C256.939 967.612 191.672 932.136 162.64 870.894L138.202 819.343C122.294 785.787 117.962 747.904 125.882 711.623L141.714 639.109C154.722 579.523 126.397 518.575 72.4614 490.101C18.2811 461.498 -10.0263 400.149 3.37048 340.365L13.0856 297.01C20.5209 263.829 36.5524 233.187 59.5715 208.16L108.426 155.044C154.6 104.841 211.287 65.4497 274.441 39.6817L301.045 28.827C362.091 3.91917 428.591 -4.58522 493.94 4.15845Z" fill="#F9EFE9"/>
</svg>
