<svg width="988" height="883" viewBox="0 0 988 883" fill="none" xmlns="http://www.w3.org/2000/svg">
<path opacity="0.84" d="M1295.15 300.323L1448.21 584.629C1478.33 640.578 1461.58 710.227 1409.31 746.36C1346.12 790.047 1258.83 766.77 1225.78 697.416L1053.94 336.807C1039.96 307.464 1019.15 281.894 993.266 262.235C875.106 172.496 703.722 235.185 671.351 379.985L670.435 384.082C657.356 442.591 619.476 492.518 566.653 520.872L513.827 549.229C419.361 599.937 391.678 722.539 455.19 808.917C513.838 888.68 495.297 1001.09 414.14 1057.79L204.791 1204.06C172.218 1226.82 157.675 1267.74 168.578 1305.95C182.638 1355.22 145.512 1404.21 94.2784 1403.99L87.0946 1403.96C43.8897 1403.77 8.17752 1370.22 5.303 1327.11L0.434817 1254.1C-3.53502 1194.57 25.7749 1137.73 76.5793 1106.43L145.011 1064.28C222.687 1016.44 236.673 909.25 173.876 843.076C113.93 779.906 101.652 685.247 143.498 608.874L178.722 544.587C201.65 502.74 237.807 469.677 281.531 450.573L368.923 412.389C440.735 381.013 482.807 305.597 471.784 228.009C460.71 150.068 503.214 74.3691 575.524 43.2471L627.963 20.6777C668.096 3.40486 712.065 -3.00866 755.46 2.08082L847.558 12.8825C934.604 23.0916 1018.32 52.3898 1092.74 98.6859L1124.09 118.188C1196.02 162.939 1255 225.729 1295.15 300.323Z" fill="#F9EFE9"/>
</svg>
