<svg width="767" height="1681" viewBox="0 0 767 1681" fill="none" xmlns="http://www.w3.org/2000/svg">
<path opacity="0.84" d="M503.938 55.6597L836.328 1.73679C901.739 -8.87478 964.673 31.3814 982.465 95.2148C1003.98 172.394 951.276 250.486 871.654 259.414L457.656 305.836C423.969 309.614 391.675 321.4 363.474 340.21C234.744 426.071 238.098 616.358 369.774 697.629L373.501 699.928C426.706 732.767 462.998 787.122 472.935 848.851L482.873 910.583C500.643 1020.98 612.039 1090.06 718.826 1056.91C817.434 1026.3 921.901 1082.9 950.118 1182.22L1022.91 1438.42C1034.23 1478.28 1069.6 1506.57 1110.98 1508.85C1164.33 1511.79 1199.95 1565.08 1182.27 1615.5L1179.79 1622.57C1164.88 1665.09 1119.64 1688.85 1076.17 1676.98L1002.55 1656.89C942.521 1640.5 896.49 1592.24 882.969 1531.5L864.757 1449.68C844.085 1356.81 743.212 1306.48 656.582 1345.82C573.885 1383.36 476.405 1363.19 415.4 1295.91L364.049 1239.27C330.623 1202.41 310.363 1155.5 306.441 1105.89L298.603 1006.74C292.162 925.27 232.178 858.093 151.95 842.505C71.3576 826.846 11.2409 759.147 5.22062 677.268L0.854917 617.891C-2.48629 572.448 6.18349 526.925 25.9944 485.892L68.0396 398.804C107.779 316.494 165.197 243.971 236.197 186.41L266.106 162.163C334.736 106.524 416.728 69.8076 503.938 55.6597Z" fill="#F9EFE9"/>
</svg>
