<svg width="1018" height="808" viewBox="0 0 1018 808" fill="none" xmlns="http://www.w3.org/2000/svg">
<path opacity="0.84" d="M133.621 52.5185L306.947 -96.2413C341.056 -125.516 391.721 -124.471 424.593 -93.8144C464.339 -56.7487 461.451 7.09045 418.521 40.4162L195.305 213.695C177.142 227.795 162.617 246.037 152.946 266.898C108.798 362.121 178.033 471.078 282.992 471.554L285.962 471.567C328.372 471.759 368.601 490.387 396.183 522.603L423.767 554.821C473.092 612.434 562.002 613.027 612.091 556.076C658.343 503.487 738.827 499.303 790.283 546.812L923.019 669.367C943.671 688.436 974.148 692.298 998.904 678.986C1030.82 661.821 1070.29 680.07 1077.89 715.508L1078.95 720.477C1085.36 750.361 1067.57 780.113 1038.21 788.618L988.499 803.021C947.956 814.767 904.243 803.107 874.936 772.73L835.46 731.813C790.653 685.37 714.466 691.912 678.232 745.313C643.642 796.291 580.085 819.088 520.979 801.718L471.228 787.097C438.843 777.58 410.528 757.593 390.714 730.266L351.113 675.647C318.572 630.766 260.095 613.095 208.144 632.444C155.957 651.882 97.2188 633.955 64.7783 588.691L41.2528 555.866C23.2481 530.744 12.1677 501.328 9.12339 470.571L2.66238 405.293C-3.44423 343.596 4.14369 281.312 24.8845 222.886L33.6216 198.274C53.6701 141.798 88.1444 91.5491 133.621 52.5185Z" fill="#F9EFE9"/>
</svg>
