<svg width="804" height="489" viewBox="0 0 804 489" fill="none" xmlns="http://www.w3.org/2000/svg">
<path opacity="0.84" d="M661.251 784.767L481.957 932.254C446.673 961.278 395.211 959.139 362.457 927.288C322.855 888.778 327.146 823.966 371.479 791.013L601.992 619.67C620.749 605.728 635.896 587.499 646.167 566.506C693.053 470.678 625.012 358.486 518.363 355.773L515.345 355.696C472.253 354.6 431.767 334.816 404.424 301.492L377.078 268.166C328.178 208.572 237.841 206.08 185.731 262.889C137.612 315.348 55.7357 317.889 4.45551 268.517L-127.826 141.157C-148.407 121.341 -179.296 116.768 -204.736 129.771C-237.538 146.535 -277.254 127.152 -284.221 90.9794L-285.198 85.9072C-291.073 55.4026 -272.366 25.5465 -242.353 17.5277L-191.526 3.94757C-150.078 -7.12674 -105.904 5.65063 -76.768 37.1421L-37.5225 79.5601C7.02403 127.708 84.5833 122.679 122.539 69.1821C158.772 18.1141 223.843 -3.7021 283.537 15.2048L333.783 31.1196C366.49 41.4791 394.84 62.3909 414.393 90.5817L453.475 146.926C485.589 193.226 544.639 212.426 597.842 193.867C651.286 175.223 710.595 194.688 742.6 241.375L765.809 275.231C783.571 301.143 794.206 331.27 796.646 362.59L801.825 429.062C806.72 491.888 797.685 555.02 775.367 613.952L765.966 638.777C744.393 695.741 708.292 746.071 661.251 784.767Z" fill="#F9EFE9"/>
</svg>
